<?xml version="1.0" encoding="utf-8"?>
<!-- Generator: Adobe Illustrator 23.0.6, SVG Export Plug-In . SVG Version: 6.00 Build 0)  -->
<svg version="1.1" id="Layer_1" xmlns="http://www.w3.org/2000/svg" xmlns:xlink="http://www.w3.org/1999/xlink" x="0px" y="0px"
	 viewBox="0 0 143.65 144.18" style="enable-background:new 0 0 143.65 144.18;" xml:space="preserve">
<style type="text/css">
	.st0{clip-path:url(#SVGID_2_);fill:#33CCFF;}
	.st1{fill:#FFFFFF;stroke:#FFFFFF;stroke-width:3;stroke-miterlimit:10;}
</style>
<g>
	<defs>
		<path id="SVGID_1_" d="M131.67,143.99H11.85c-6.58,0-11.91-5.33-11.91-11.91V11.9c0-6.58,5.33-11.91,11.91-11.91h119.81
			c6.58,0,11.91,5.33,11.91,11.91v120.18C143.58,138.65,138.24,143.99,131.67,143.99z"/>
	</defs>
	<clipPath id="SVGID_2_">
		<use xlink:href="#SVGID_1_"  style="overflow:visible;"/>
	</clipPath>
	<path class="st0" d="M131.95,144.3H12.14c-6.58,0-11.91-5.33-11.91-11.91V11.9c0-6.58,5.33-11.91,11.91-11.91h119.81
		c6.58,0,11.91,5.33,11.91,11.91v120.49C143.86,138.96,138.53,144.3,131.95,144.3z"/>
</g>
<g>
	<g>
		<path class="st1" d="M71.99,43.32c4.33,0,7.99,1.54,10.99,4.61c3,3,4.5,6.63,4.5,10.89v25.54c0,4.26-1.5,7.89-4.5,10.89
			c-3,3.07-6.66,4.61-10.99,4.61c-4.12,0-7.78-1.53-10.99-4.61c-3.07-3.07-4.6-6.7-4.6-10.89s1.53-7.81,4.6-10.89
			c3.21-3.07,6.87-4.61,10.99-4.61h9.94V58.81c0-2.79-0.94-5.13-2.82-7.02c-1.96-1.95-4.33-2.93-7.12-2.93
			c-1.54,0-3.05,0.36-4.55,1.1c-1.5,0.73-2.74,1.69-3.72,2.88c-0.49,0.63-0.86,1.24-1.1,1.83c-0.25,0.59-0.44,1.17-0.58,1.72v0.11
			c-0.07,0.21-0.14,0.42-0.21,0.63c-0.07,0.21-0.11,0.35-0.11,0.42c-0.7,0.84-1.57,1.19-2.62,1.05c-0.77-0.14-1.38-0.5-1.83-1.1
			c-0.46-0.59-0.65-1.27-0.58-2.04c0.63-2.79,2.06-5.3,4.29-7.54C64.21,44.86,67.87,43.32,71.99,43.32z M81.93,74.3h-9.94
			c-2.79,0-5.17,0.98-7.12,2.93c-1.96,1.96-2.93,4.33-2.93,7.12c0,2.72,1.01,5.09,3.04,7.12c1.88,1.88,4.22,2.83,7.01,2.83
			c2.65,0,5.03-0.98,7.12-2.93c1.88-1.88,2.82-4.22,2.82-7.01V74.3z"/>
	</g>
</g>
</svg>
